<svg xmlns="http://www.w3.org/2000/svg" xmlns:xlink="http://www.w3.org/1999/xlink" width="360" height="600" viewBox="0 0 360 600">
    <defs>
        <path id="a" d="M0 0h360v600H0z"/>
        <path id="c" d="M-1.35-1.36h83.7v70.72h-83.7z"/>
        <path id="e" d="M-1.35-1.36h83.7v70.72h-83.7z"/>
        <path id="g" d="M-1.35-1.36h83.7v70.72h-83.7z"/>
        <path id="i" d="M-1.35-1.36h83.7v70.72h-83.7z"/>
        <path id="k" d="M-1.35-1.36h83.7v70.72h-83.7z"/>
        <path id="m" d="M-1.35-1.36h83.7v70.72h-83.7z"/>
        <path id="o" d="M-1.35-1.36h83.7v70.72h-83.7z"/>
        <path id="q" d="M-1.35-1.36h83.7v70.72h-83.7z"/>
        <path id="s" d="M-1.35-1.36h83.7v70.72h-83.7z"/>
        <path id="u" d="M-1.35-1.36h83.7v70.72h-83.7z"/>
        <path id="w" d="M-1.35-1.36h83.7v70.72h-83.7z"/>
        <path id="y" d="M-1.35-1.36h83.7v70.72h-83.7z"/>
        <path id="A" d="M-1.35-1.36h83.7v70.72h-83.7z"/>
        <path id="C" d="M-1.35-1.36h83.7v70.72h-83.7z"/>
        <path id="E" d="M-1.35-1.36h83.7v70.72h-83.7z"/>
        <path id="G" d="M-1.35-1.36h83.7v70.72h-83.7z"/>
        <path id="I" d="M-1.35-1.36h83.7v70.72h-83.7z"/>
        <path id="K" d="M-1.35-1.36h83.7v70.72h-83.7z"/>
        <path id="M" d="M-1.35-1.36h83.7v70.72h-83.7z"/>
        <path id="O" d="M-1.35-1.36h83.7v70.72h-83.7z"/>
        <path id="Q" d="M-1.35-1.36h83.7v70.72h-83.7z"/>
        <path id="S" d="M-1.35-1.36h83.7v70.72h-83.7z"/>
        <path id="U" d="M-1.35-1.36h83.7v70.72h-83.7z"/>
        <path id="W" d="M-1.35-1.36h83.7v70.72h-83.7z"/>
        <path id="Y" d="M-1.35-1.36h83.7v70.72h-83.7z"/>
        <path id="aa" d="M-1.35-1.36h83.7v70.72h-83.7z"/>
        <path id="ac" d="M-1.35-1.36h83.7v70.72h-83.7z"/>
        <path id="ae" d="M-1.35-1.36h83.7v70.72h-83.7z"/>
        <path id="ag" d="M-1.35-1.36h83.7v70.72h-83.7z"/>
        <path id="ai" d="M-1.35-1.36h83.7v70.72h-83.7z"/>
        <path id="ak" d="M-1.35-1.36h83.7v70.72h-83.7z"/>
        <path id="am" d="M-1.35-1.36h83.7v70.72h-83.7z"/>
        <path id="ao" d="M-1.35-1.36h83.7v70.72h-83.7z"/>
        <path id="aq" d="M-1.35-1.36h83.7v70.72h-83.7z"/>
        <path id="as" d="M-1.35-1.36h83.7v70.72h-83.7z"/>
        <path id="au" d="M-1.35-1.36h83.7v70.72h-83.7z"/>
        <path id="aw" d="M-1.35-1.36h83.7v70.72h-83.7z"/>
        <path id="ay" d="M-1.35-1.36h83.7v70.72h-83.7z"/>
        <path id="aA" d="M-1.35-1.36h83.7v70.72h-83.7z"/>
        <path id="aC" d="M-1.35-1.36h83.7v70.72h-83.7z"/>
        <path id="aE" d="M-1.35-1.36h83.7v70.72h-83.7z"/>
        <path id="aG" d="M-1.35-1.36h83.7v70.72h-83.7z"/>
        <path id="aI" d="M-1.35-1.36h83.7v70.72h-83.7z"/>
        <path id="aK" d="M-1.35-1.36h83.7v70.72h-83.7z"/>
        <path id="aM" d="M-1.35-1.36h83.7v70.72h-83.7z"/>
        <path id="aO" d="M-1.35-1.36h83.7v70.72h-83.7z"/>
        <path id="aQ" d="M-1.35-1.36h83.7v70.72h-83.7z"/>
        <path id="aS" d="M-1.35-1.36h83.7v70.72h-83.7z"/>
        <path id="aU" d="M-1.35-1.36h83.7v70.72h-83.7z"/>
        <path id="aW" d="M-1.35-1.36h83.7v70.72h-83.7z"/>
        <path id="aY" d="M-1.35-1.36h83.7v70.72h-83.7z"/>
        <path id="ba" d="M-1.35-1.36h83.7v70.72h-83.7z"/>
        <path id="bc" d="M-1.35-1.36h83.7v70.72h-83.7z"/>
        <path id="be" d="M-1.35-1.36h83.7v70.72h-83.7z"/>
        <path id="bg" d="M-1.35-1.36h83.7v70.72h-83.7z"/>
        <path id="bi" d="M-1.35-1.36h83.7v70.72h-83.7z"/>
        <path id="bk" d="M-1.35-1.36h83.7v70.72h-83.7z"/>
        <path id="bm" d="M-1.35-1.36h83.7v70.72h-83.7z"/>
        <path id="bo" d="M-1.35-1.36h83.7v70.72h-83.7z"/>
        <path id="bq" d="M-1.35-1.36h83.7v70.72h-83.7z"/>
    </defs>
    <g fill="none" fill-rule="evenodd" opacity="0.03">
        <mask id="b" fill="#fff">
            <use xlink:href="#a"/>
        </mask>
        <g mask="url(#b)">
            <g transform="translate(-64 79)">
                <mask id="d" fill="#fff">
                    <use xlink:href="#c"/>
                </mask>
                <g fill="#000000" fill-rule="nonzero" mask="url(#d)">
                    <path d="M22.275 63.788l16.2-8.936V35.94l-17.864-9.855L2.025 36.338v18.116l16.2 8.936V42.16h4.05v21.628zm-4.05-41.038V0h4.05v22.352l20.25 11.17V57.27L20.611 69.358-2.025 56.871v-22.95l20.25-11.171z"/>
                    <path d="M42.525 34.476L20.611 46.564-2.025 34.078V11.127L20.611-1.36l21.914 12.089v23.747zm-4.05-21.33L20.611 3.292 2.025 13.544V31.66l18.586 10.253 17.864-9.855V13.146z"/>
                    <g>
                        <path d="M58.725 63.788l-16.2-8.936V35.94l17.864-9.855 18.586 10.253v18.116l-16.2 8.936V42.16h-4.05v21.628zm4.05-41.038V0h-4.05v22.352l-20.25 11.17V57.27l21.914 12.089 22.636-12.487v-22.95L62.775 22.75z"/>
                        <path d="M38.475 34.476l21.914 12.088 22.636-12.486V11.127L60.389-1.36 38.475 10.729v23.747zm4.05-21.33l17.864-9.854 18.586 10.252V31.66L60.389 41.913l-17.864-9.855V13.146z"/>
                    </g>
                </g>
            </g>
            <g transform="translate(98.5 79)">
                <mask id="f" fill="#fff">
                    <use xlink:href="#e"/>
                </mask>
                <g fill="#000000" fill-rule="nonzero" mask="url(#f)">
                    <path d="M22.275 63.788l16.2-8.936V35.94l-17.864-9.855L2.025 36.338v18.116l16.2 8.936V42.16h4.05v21.628zm-4.05-41.038V0h4.05v22.352l20.25 11.17V57.27L20.611 69.358-2.025 56.871v-22.95l20.25-11.171z"/>
                    <path d="M42.525 34.476L20.611 46.564-2.025 34.078V11.127L20.611-1.36l21.914 12.089v23.747zm-4.05-21.33L20.611 3.292 2.025 13.544V31.66l18.586 10.253 17.864-9.855V13.146z"/>
                    <g>
                        <path d="M58.725 63.788l-16.2-8.936V35.94l17.864-9.855 18.586 10.253v18.116l-16.2 8.936V42.16h-4.05v21.628zm4.05-41.038V0h-4.05v22.352l-20.25 11.17V57.27l21.914 12.089 22.636-12.487v-22.95L62.775 22.75z"/>
                        <path d="M38.475 34.476l21.914 12.088 22.636-12.486V11.127L60.389-1.36 38.475 10.729v23.747zm4.05-21.33l17.864-9.854 18.586 10.252V31.66L60.389 41.913l-17.864-9.855V13.146z"/>
                    </g>
                </g>
            </g>
            <g transform="translate(-64 146.5)">
                <mask id="h" fill="#fff">
                    <use xlink:href="#g"/>
                </mask>
                <g fill="#000000" fill-rule="nonzero" mask="url(#h)">
                    <path d="M22.275 63.788l16.2-8.936V35.94l-17.864-9.855L2.025 36.338v18.116l16.2 8.936V42.16h4.05v21.628zm-4.05-41.038V0h4.05v22.352l20.25 11.17V57.27L20.611 69.358-2.025 56.871v-22.95l20.25-11.171z"/>
                    <path d="M42.525 34.476L20.611 46.564-2.025 34.078V11.127L20.611-1.36l21.914 12.089v23.747zm-4.05-21.33L20.611 3.292 2.025 13.544V31.66l18.586 10.253 17.864-9.855V13.146z"/>
                    <g>
                        <path d="M58.725 63.788l-16.2-8.936V35.94l17.864-9.855 18.586 10.253v18.116l-16.2 8.936V42.16h-4.05v21.628zm4.05-41.038V0h-4.05v22.352l-20.25 11.17V57.27l21.914 12.089 22.636-12.487v-22.95L62.775 22.75z"/>
                        <path d="M38.475 34.476l21.914 12.088 22.636-12.486V11.127L60.389-1.36 38.475 10.729v23.747zm4.05-21.33l17.864-9.854 18.586 10.252V31.66L60.389 41.913l-17.864-9.855V13.146z"/>
                    </g>
                </g>
            </g>
            <g transform="translate(98.5 146.5)">
                <mask id="j" fill="#fff">
                    <use xlink:href="#i"/>
                </mask>
                <g fill="#000000" fill-rule="nonzero" mask="url(#j)">
                    <path d="M22.275 63.788l16.2-8.936V35.94l-17.864-9.855L2.025 36.338v18.116l16.2 8.936V42.16h4.05v21.628zm-4.05-41.038V0h4.05v22.352l20.25 11.17V57.27L20.611 69.358-2.025 56.871v-22.95l20.25-11.171z"/>
                    <path d="M42.525 34.476L20.611 46.564-2.025 34.078V11.127L20.611-1.36l21.914 12.089v23.747zm-4.05-21.33L20.611 3.292 2.025 13.544V31.66l18.586 10.253 17.864-9.855V13.146z"/>
                    <g>
                        <path d="M58.725 63.788l-16.2-8.936V35.94l17.864-9.855 18.586 10.253v18.116l-16.2 8.936V42.16h-4.05v21.628zm4.05-41.038V0h-4.05v22.352l-20.25 11.17V57.27l21.914 12.089 22.636-12.487v-22.95L62.775 22.75z"/>
                        <path d="M38.475 34.476l21.914 12.088 22.636-12.486V11.127L60.389-1.36 38.475 10.729v23.747zm4.05-21.33l17.864-9.854 18.586 10.252V31.66L60.389 41.913l-17.864-9.855V13.146z"/>
                    </g>
                </g>
            </g>
            <g transform="translate(17.25 79)">
                <mask id="l" fill="#fff">
                    <use xlink:href="#k"/>
                </mask>
                <g fill="#000000" fill-rule="nonzero" mask="url(#l)">
                    <path d="M22.275 63.788l16.2-8.936V35.94l-17.864-9.855L2.025 36.338v18.116l16.2 8.936V42.16h4.05v21.628zm-4.05-41.038V0h4.05v22.352l20.25 11.17V57.27L20.611 69.358-2.025 56.871v-22.95l20.25-11.171z"/>
                    <path d="M42.525 34.476L20.611 46.564-2.025 34.078V11.127L20.611-1.36l21.914 12.089v23.747zm-4.05-21.33L20.611 3.292 2.025 13.544V31.66l18.586 10.253 17.864-9.855V13.146z"/>
                    <g>
                        <path d="M58.725 63.788l-16.2-8.936V35.94l17.864-9.855 18.586 10.253v18.116l-16.2 8.936V42.16h-4.05v21.628zm4.05-41.038V0h-4.05v22.352l-20.25 11.17V57.27l21.914 12.089 22.636-12.487v-22.95L62.775 22.75z"/>
                        <path d="M38.475 34.476l21.914 12.088 22.636-12.486V11.127L60.389-1.36 38.475 10.729v23.747zm4.05-21.33l17.864-9.854 18.586 10.252V31.66L60.389 41.913l-17.864-9.855V13.146z"/>
                    </g>
                </g>
            </g>
            <g transform="translate(179.75 79)">
                <mask id="n" fill="#fff">
                    <use xlink:href="#m"/>
                </mask>
                <g fill="#000000" fill-rule="nonzero" mask="url(#n)">
                    <path d="M22.275 63.788l16.2-8.936V35.94l-17.864-9.855L2.025 36.338v18.116l16.2 8.936V42.16h4.05v21.628zm-4.05-41.038V0h4.05v22.352l20.25 11.17V57.27L20.611 69.358-2.025 56.871v-22.95l20.25-11.171z"/>
                    <path d="M42.525 34.476L20.611 46.564-2.025 34.078V11.127L20.611-1.36l21.914 12.089v23.747zm-4.05-21.33L20.611 3.292 2.025 13.544V31.66l18.586 10.253 17.864-9.855V13.146z"/>
                    <g>
                        <path d="M58.725 63.788l-16.2-8.936V35.94l17.864-9.855 18.586 10.253v18.116l-16.2 8.936V42.16h-4.05v21.628zm4.05-41.038V0h-4.05v22.352l-20.25 11.17V57.27l21.914 12.089 22.636-12.487v-22.95L62.775 22.75z"/>
                        <path d="M38.475 34.476l21.914 12.088 22.636-12.486V11.127L60.389-1.36 38.475 10.729v23.747zm4.05-21.33l17.864-9.854 18.586 10.252V31.66L60.389 41.913l-17.864-9.855V13.146z"/>
                    </g>
                </g>
            </g>
            <g transform="translate(17.25 146.5)">
                <mask id="p" fill="#fff">
                    <use xlink:href="#o"/>
                </mask>
                <g fill="#000000" fill-rule="nonzero" mask="url(#p)">
                    <path d="M22.275 63.788l16.2-8.936V35.94l-17.864-9.855L2.025 36.338v18.116l16.2 8.936V42.16h4.05v21.628zm-4.05-41.038V0h4.05v22.352l20.25 11.17V57.27L20.611 69.358-2.025 56.871v-22.95l20.25-11.171z"/>
                    <path d="M42.525 34.476L20.611 46.564-2.025 34.078V11.127L20.611-1.36l21.914 12.089v23.747zm-4.05-21.33L20.611 3.292 2.025 13.544V31.66l18.586 10.253 17.864-9.855V13.146z"/>
                    <g>
                        <path d="M58.725 63.788l-16.2-8.936V35.94l17.864-9.855 18.586 10.253v18.116l-16.2 8.936V42.16h-4.05v21.628zm4.05-41.038V0h-4.05v22.352l-20.25 11.17V57.27l21.914 12.089 22.636-12.487v-22.95L62.775 22.75z"/>
                        <path d="M38.475 34.476l21.914 12.088 22.636-12.486V11.127L60.389-1.36 38.475 10.729v23.747zm4.05-21.33l17.864-9.854 18.586 10.252V31.66L60.389 41.913l-17.864-9.855V13.146z"/>
                    </g>
                </g>
            </g>
            <g transform="translate(179.75 146.5)">
                <mask id="r" fill="#fff">
                    <use xlink:href="#q"/>
                </mask>
                <g fill="#000000" fill-rule="nonzero" mask="url(#r)">
                    <path d="M22.275 63.788l16.2-8.936V35.94l-17.864-9.855L2.025 36.338v18.116l16.2 8.936V42.16h4.05v21.628zm-4.05-41.038V0h4.05v22.352l20.25 11.17V57.27L20.611 69.358-2.025 56.871v-22.95l20.25-11.171z"/>
                    <path d="M42.525 34.476L20.611 46.564-2.025 34.078V11.127L20.611-1.36l21.914 12.089v23.747zm-4.05-21.33L20.611 3.292 2.025 13.544V31.66l18.586 10.253 17.864-9.855V13.146z"/>
                    <g>
                        <path d="M58.725 63.788l-16.2-8.936V35.94l17.864-9.855 18.586 10.253v18.116l-16.2 8.936V42.16h-4.05v21.628zm4.05-41.038V0h-4.05v22.352l-20.25 11.17V57.27l21.914 12.089 22.636-12.487v-22.95L62.775 22.75z"/>
                        <path d="M38.475 34.476l21.914 12.088 22.636-12.486V11.127L60.389-1.36 38.475 10.729v23.747zm4.05-21.33l17.864-9.854 18.586 10.252V31.66L60.389 41.913l-17.864-9.855V13.146z"/>
                    </g>
                </g>
            </g>
            <g transform="translate(261 79)">
                <mask id="t" fill="#fff">
                    <use xlink:href="#s"/>
                </mask>
                <g fill="#000000" fill-rule="nonzero" mask="url(#t)">
                    <path d="M22.275 63.788l16.2-8.936V35.94l-17.864-9.855L2.025 36.338v18.116l16.2 8.936V42.16h4.05v21.628zm-4.05-41.038V0h4.05v22.352l20.25 11.17V57.27L20.611 69.358-2.025 56.871v-22.95l20.25-11.171z"/>
                    <path d="M42.525 34.476L20.611 46.564-2.025 34.078V11.127L20.611-1.36l21.914 12.089v23.747zm-4.05-21.33L20.611 3.292 2.025 13.544V31.66l18.586 10.253 17.864-9.855V13.146z"/>
                    <g>
                        <path d="M58.725 63.788l-16.2-8.936V35.94l17.864-9.855 18.586 10.253v18.116l-16.2 8.936V42.16h-4.05v21.628zm4.05-41.038V0h-4.05v22.352l-20.25 11.17V57.27l21.914 12.089 22.636-12.487v-22.95L62.775 22.75z"/>
                        <path d="M38.475 34.476l21.914 12.088 22.636-12.486V11.127L60.389-1.36 38.475 10.729v23.747zm4.05-21.33l17.864-9.854 18.586 10.252V31.66L60.389 41.913l-17.864-9.855V13.146z"/>
                    </g>
                </g>
            </g>
            <g transform="translate(261 146.5)">
                <mask id="v" fill="#fff">
                    <use xlink:href="#u"/>
                </mask>
                <g fill="#000000" fill-rule="nonzero" mask="url(#v)">
                    <path d="M22.275 63.788l16.2-8.936V35.94l-17.864-9.855L2.025 36.338v18.116l16.2 8.936V42.16h4.05v21.628zm-4.05-41.038V0h4.05v22.352l20.25 11.17V57.27L20.611 69.358-2.025 56.871v-22.95l20.25-11.171z"/>
                    <path d="M42.525 34.476L20.611 46.564-2.025 34.078V11.127L20.611-1.36l21.914 12.089v23.747zm-4.05-21.33L20.611 3.292 2.025 13.544V31.66l18.586 10.253 17.864-9.855V13.146z"/>
                    <g>
                        <path d="M58.725 63.788l-16.2-8.936V35.94l17.864-9.855 18.586 10.253v18.116l-16.2 8.936V42.16h-4.05v21.628zm4.05-41.038V0h-4.05v22.352l-20.25 11.17V57.27l21.914 12.089 22.636-12.487v-22.95L62.775 22.75z"/>
                        <path d="M38.475 34.476l21.914 12.088 22.636-12.486V11.127L60.389-1.36 38.475 10.729v23.747zm4.05-21.33l17.864-9.854 18.586 10.252V31.66L60.389 41.913l-17.864-9.855V13.146z"/>
                    </g>
                </g>
            </g>
            <g transform="translate(342.25 79)">
                <mask id="x" fill="#fff">
                    <use xlink:href="#w"/>
                </mask>
                <g fill="#000000" fill-rule="nonzero" mask="url(#x)">
                    <path d="M22.275 63.788l16.2-8.936V35.94l-17.864-9.855L2.025 36.338v18.116l16.2 8.936V42.16h4.05v21.628zm-4.05-41.038V0h4.05v22.352l20.25 11.17V57.27L20.611 69.358-2.025 56.871v-22.95l20.25-11.171z"/>
                    <path d="M42.525 34.476L20.611 46.564-2.025 34.078V11.127L20.611-1.36l21.914 12.089v23.747zm-4.05-21.33L20.611 3.292 2.025 13.544V31.66l18.586 10.253 17.864-9.855V13.146z"/>
                    <g>
                        <path d="M58.725 63.788l-16.2-8.936V35.94l17.864-9.855 18.586 10.253v18.116l-16.2 8.936V42.16h-4.05v21.628zm4.05-41.038V0h-4.05v22.352l-20.25 11.17V57.27l21.914 12.089 22.636-12.487v-22.95L62.775 22.75z"/>
                        <path d="M38.475 34.476l21.914 12.088 22.636-12.486V11.127L60.389-1.36 38.475 10.729v23.747zm4.05-21.33l17.864-9.854 18.586 10.252V31.66L60.389 41.913l-17.864-9.855V13.146z"/>
                    </g>
                </g>
            </g>
            <g transform="translate(342.25 146.5)">
                <mask id="z" fill="#fff">
                    <use xlink:href="#y"/>
                </mask>
                <g fill="#000000" fill-rule="nonzero" mask="url(#z)">
                    <path d="M22.275 63.788l16.2-8.936V35.94l-17.864-9.855L2.025 36.338v18.116l16.2 8.936V42.16h4.05v21.628zm-4.05-41.038V0h4.05v22.352l20.25 11.17V57.27L20.611 69.358-2.025 56.871v-22.95l20.25-11.171z"/>
                    <path d="M42.525 34.476L20.611 46.564-2.025 34.078V11.127L20.611-1.36l21.914 12.089v23.747zm-4.05-21.33L20.611 3.292 2.025 13.544V31.66l18.586 10.253 17.864-9.855V13.146z"/>
                    <g>
                        <path d="M58.725 63.788l-16.2-8.936V35.94l17.864-9.855 18.586 10.253v18.116l-16.2 8.936V42.16h-4.05v21.628zm4.05-41.038V0h-4.05v22.352l-20.25 11.17V57.27l21.914 12.089 22.636-12.487v-22.95L62.775 22.75z"/>
                        <path d="M38.475 34.476l21.914 12.088 22.636-12.486V11.127L60.389-1.36 38.475 10.729v23.747zm4.05-21.33l17.864-9.854 18.586 10.252V31.66L60.389 41.913l-17.864-9.855V13.146z"/>
                    </g>
                </g>
            </g>
            <g>
                <g transform="translate(-64 349)">
                    <mask id="B" fill="#fff">
                        <use xlink:href="#A"/>
                    </mask>
                    <g fill="#000000" fill-rule="nonzero" mask="url(#B)">
                        <path d="M22.275 63.788l16.2-8.936V35.94l-17.864-9.855L2.025 36.338v18.116l16.2 8.936V42.16h4.05v21.628zm-4.05-41.038V0h4.05v22.352l20.25 11.17V57.27L20.611 69.358-2.025 56.871v-22.95l20.25-11.171z"/>
                        <path d="M42.525 34.476L20.611 46.564-2.025 34.078V11.127L20.611-1.36l21.914 12.089v23.747zm-4.05-21.33L20.611 3.292 2.025 13.544V31.66l18.586 10.253 17.864-9.855V13.146z"/>
                        <g>
                            <path d="M58.725 63.788l-16.2-8.936V35.94l17.864-9.855 18.586 10.253v18.116l-16.2 8.936V42.16h-4.05v21.628zm4.05-41.038V0h-4.05v22.352l-20.25 11.17V57.27l21.914 12.089 22.636-12.487v-22.95L62.775 22.75z"/>
                            <path d="M38.475 34.476l21.914 12.088 22.636-12.486V11.127L60.389-1.36 38.475 10.729v23.747zm4.05-21.33l17.864-9.854 18.586 10.252V31.66L60.389 41.913l-17.864-9.855V13.146z"/>
                        </g>
                    </g>
                </g>
                <g transform="translate(98.5 349)">
                    <mask id="D" fill="#fff">
                        <use xlink:href="#C"/>
                    </mask>
                    <g fill="#000000" fill-rule="nonzero" mask="url(#D)">
                        <path d="M22.275 63.788l16.2-8.936V35.94l-17.864-9.855L2.025 36.338v18.116l16.2 8.936V42.16h4.05v21.628zm-4.05-41.038V0h4.05v22.352l20.25 11.17V57.27L20.611 69.358-2.025 56.871v-22.95l20.25-11.171z"/>
                        <path d="M42.525 34.476L20.611 46.564-2.025 34.078V11.127L20.611-1.36l21.914 12.089v23.747zm-4.05-21.33L20.611 3.292 2.025 13.544V31.66l18.586 10.253 17.864-9.855V13.146z"/>
                        <g>
                            <path d="M58.725 63.788l-16.2-8.936V35.94l17.864-9.855 18.586 10.253v18.116l-16.2 8.936V42.16h-4.05v21.628zm4.05-41.038V0h-4.05v22.352l-20.25 11.17V57.27l21.914 12.089 22.636-12.487v-22.95L62.775 22.75z"/>
                            <path d="M38.475 34.476l21.914 12.088 22.636-12.486V11.127L60.389-1.36 38.475 10.729v23.747zm4.05-21.33l17.864-9.854 18.586 10.252V31.66L60.389 41.913l-17.864-9.855V13.146z"/>
                        </g>
                    </g>
                </g>
                <g transform="translate(-64 416.5)">
                    <mask id="F" fill="#fff">
                        <use xlink:href="#E"/>
                    </mask>
                    <g fill="#000000" fill-rule="nonzero" mask="url(#F)">
                        <path d="M22.275 63.788l16.2-8.936V35.94l-17.864-9.855L2.025 36.338v18.116l16.2 8.936V42.16h4.05v21.628zm-4.05-41.038V0h4.05v22.352l20.25 11.17V57.27L20.611 69.358-2.025 56.871v-22.95l20.25-11.171z"/>
                        <path d="M42.525 34.476L20.611 46.564-2.025 34.078V11.127L20.611-1.36l21.914 12.089v23.747zm-4.05-21.33L20.611 3.292 2.025 13.544V31.66l18.586 10.253 17.864-9.855V13.146z"/>
                        <g>
                            <path d="M58.725 63.788l-16.2-8.936V35.94l17.864-9.855 18.586 10.253v18.116l-16.2 8.936V42.16h-4.05v21.628zm4.05-41.038V0h-4.05v22.352l-20.25 11.17V57.27l21.914 12.089 22.636-12.487v-22.95L62.775 22.75z"/>
                            <path d="M38.475 34.476l21.914 12.088 22.636-12.486V11.127L60.389-1.36 38.475 10.729v23.747zm4.05-21.33l17.864-9.854 18.586 10.252V31.66L60.389 41.913l-17.864-9.855V13.146z"/>
                        </g>
                    </g>
                </g>
                <g transform="translate(98.5 416.5)">
                    <mask id="H" fill="#fff">
                        <use xlink:href="#G"/>
                    </mask>
                    <g fill="#000000" fill-rule="nonzero" mask="url(#H)">
                        <path d="M22.275 63.788l16.2-8.936V35.94l-17.864-9.855L2.025 36.338v18.116l16.2 8.936V42.16h4.05v21.628zm-4.05-41.038V0h4.05v22.352l20.25 11.17V57.27L20.611 69.358-2.025 56.871v-22.95l20.25-11.171z"/>
                        <path d="M42.525 34.476L20.611 46.564-2.025 34.078V11.127L20.611-1.36l21.914 12.089v23.747zm-4.05-21.33L20.611 3.292 2.025 13.544V31.66l18.586 10.253 17.864-9.855V13.146z"/>
                        <g>
                            <path d="M58.725 63.788l-16.2-8.936V35.94l17.864-9.855 18.586 10.253v18.116l-16.2 8.936V42.16h-4.05v21.628zm4.05-41.038V0h-4.05v22.352l-20.25 11.17V57.27l21.914 12.089 22.636-12.487v-22.95L62.775 22.75z"/>
                            <path d="M38.475 34.476l21.914 12.088 22.636-12.486V11.127L60.389-1.36 38.475 10.729v23.747zm4.05-21.33l17.864-9.854 18.586 10.252V31.66L60.389 41.913l-17.864-9.855V13.146z"/>
                        </g>
                    </g>
                </g>
                <g transform="translate(17.25 349)">
                    <mask id="J" fill="#fff">
                        <use xlink:href="#I"/>
                    </mask>
                    <g fill="#000000" fill-rule="nonzero" mask="url(#J)">
                        <path d="M22.275 63.788l16.2-8.936V35.94l-17.864-9.855L2.025 36.338v18.116l16.2 8.936V42.16h4.05v21.628zm-4.05-41.038V0h4.05v22.352l20.25 11.17V57.27L20.611 69.358-2.025 56.871v-22.95l20.25-11.171z"/>
                        <path d="M42.525 34.476L20.611 46.564-2.025 34.078V11.127L20.611-1.36l21.914 12.089v23.747zm-4.05-21.33L20.611 3.292 2.025 13.544V31.66l18.586 10.253 17.864-9.855V13.146z"/>
                        <g>
                            <path d="M58.725 63.788l-16.2-8.936V35.94l17.864-9.855 18.586 10.253v18.116l-16.2 8.936V42.16h-4.05v21.628zm4.05-41.038V0h-4.05v22.352l-20.25 11.17V57.27l21.914 12.089 22.636-12.487v-22.95L62.775 22.75z"/>
                            <path d="M38.475 34.476l21.914 12.088 22.636-12.486V11.127L60.389-1.36 38.475 10.729v23.747zm4.05-21.33l17.864-9.854 18.586 10.252V31.66L60.389 41.913l-17.864-9.855V13.146z"/>
                        </g>
                    </g>
                </g>
                <g transform="translate(179.75 349)">
                    <mask id="L" fill="#fff">
                        <use xlink:href="#K"/>
                    </mask>
                    <g fill="#000000" fill-rule="nonzero" mask="url(#L)">
                        <path d="M22.275 63.788l16.2-8.936V35.94l-17.864-9.855L2.025 36.338v18.116l16.2 8.936V42.16h4.05v21.628zm-4.05-41.038V0h4.05v22.352l20.25 11.17V57.27L20.611 69.358-2.025 56.871v-22.95l20.25-11.171z"/>
                        <path d="M42.525 34.476L20.611 46.564-2.025 34.078V11.127L20.611-1.36l21.914 12.089v23.747zm-4.05-21.33L20.611 3.292 2.025 13.544V31.66l18.586 10.253 17.864-9.855V13.146z"/>
                        <g>
                            <path d="M58.725 63.788l-16.2-8.936V35.94l17.864-9.855 18.586 10.253v18.116l-16.2 8.936V42.16h-4.05v21.628zm4.05-41.038V0h-4.05v22.352l-20.25 11.17V57.27l21.914 12.089 22.636-12.487v-22.95L62.775 22.75z"/>
                            <path d="M38.475 34.476l21.914 12.088 22.636-12.486V11.127L60.389-1.36 38.475 10.729v23.747zm4.05-21.33l17.864-9.854 18.586 10.252V31.66L60.389 41.913l-17.864-9.855V13.146z"/>
                        </g>
                    </g>
                </g>
                <g transform="translate(17.25 416.5)">
                    <mask id="N" fill="#fff">
                        <use xlink:href="#M"/>
                    </mask>
                    <g fill="#000000" fill-rule="nonzero" mask="url(#N)">
                        <path d="M22.275 63.788l16.2-8.936V35.94l-17.864-9.855L2.025 36.338v18.116l16.2 8.936V42.16h4.05v21.628zm-4.05-41.038V0h4.05v22.352l20.25 11.17V57.27L20.611 69.358-2.025 56.871v-22.95l20.25-11.171z"/>
                        <path d="M42.525 34.476L20.611 46.564-2.025 34.078V11.127L20.611-1.36l21.914 12.089v23.747zm-4.05-21.33L20.611 3.292 2.025 13.544V31.66l18.586 10.253 17.864-9.855V13.146z"/>
                        <g>
                            <path d="M58.725 63.788l-16.2-8.936V35.94l17.864-9.855 18.586 10.253v18.116l-16.2 8.936V42.16h-4.05v21.628zm4.05-41.038V0h-4.05v22.352l-20.25 11.17V57.27l21.914 12.089 22.636-12.487v-22.95L62.775 22.75z"/>
                            <path d="M38.475 34.476l21.914 12.088 22.636-12.486V11.127L60.389-1.36 38.475 10.729v23.747zm4.05-21.33l17.864-9.854 18.586 10.252V31.66L60.389 41.913l-17.864-9.855V13.146z"/>
                        </g>
                    </g>
                </g>
                <g transform="translate(179.75 416.5)">
                    <mask id="P" fill="#fff">
                        <use xlink:href="#O"/>
                    </mask>
                    <g fill="#000000" fill-rule="nonzero" mask="url(#P)">
                        <path d="M22.275 63.788l16.2-8.936V35.94l-17.864-9.855L2.025 36.338v18.116l16.2 8.936V42.16h4.05v21.628zm-4.05-41.038V0h4.05v22.352l20.25 11.17V57.27L20.611 69.358-2.025 56.871v-22.95l20.25-11.171z"/>
                        <path d="M42.525 34.476L20.611 46.564-2.025 34.078V11.127L20.611-1.36l21.914 12.089v23.747zm-4.05-21.33L20.611 3.292 2.025 13.544V31.66l18.586 10.253 17.864-9.855V13.146z"/>
                        <g>
                            <path d="M58.725 63.788l-16.2-8.936V35.94l17.864-9.855 18.586 10.253v18.116l-16.2 8.936V42.16h-4.05v21.628zm4.05-41.038V0h-4.05v22.352l-20.25 11.17V57.27l21.914 12.089 22.636-12.487v-22.95L62.775 22.75z"/>
                            <path d="M38.475 34.476l21.914 12.088 22.636-12.486V11.127L60.389-1.36 38.475 10.729v23.747zm4.05-21.33l17.864-9.854 18.586 10.252V31.66L60.389 41.913l-17.864-9.855V13.146z"/>
                        </g>
                    </g>
                </g>
            </g>
            <g>
                <g transform="translate(-64 483)">
                    <mask id="R" fill="#fff">
                        <use xlink:href="#Q"/>
                    </mask>
                    <g fill="#000000" fill-rule="nonzero" mask="url(#R)">
                        <path d="M22.275 63.788l16.2-8.936V35.94l-17.864-9.855L2.025 36.338v18.116l16.2 8.936V42.16h4.05v21.628zm-4.05-41.038V0h4.05v22.352l20.25 11.17V57.27L20.611 69.358-2.025 56.871v-22.95l20.25-11.171z"/>
                        <path d="M42.525 34.476L20.611 46.564-2.025 34.078V11.127L20.611-1.36l21.914 12.089v23.747zm-4.05-21.33L20.611 3.292 2.025 13.544V31.66l18.586 10.253 17.864-9.855V13.146z"/>
                        <g>
                            <path d="M58.725 63.788l-16.2-8.936V35.94l17.864-9.855 18.586 10.253v18.116l-16.2 8.936V42.16h-4.05v21.628zm4.05-41.038V0h-4.05v22.352l-20.25 11.17V57.27l21.914 12.089 22.636-12.487v-22.95L62.775 22.75z"/>
                            <path d="M38.475 34.476l21.914 12.088 22.636-12.486V11.127L60.389-1.36 38.475 10.729v23.747zm4.05-21.33l17.864-9.854 18.586 10.252V31.66L60.389 41.913l-17.864-9.855V13.146z"/>
                        </g>
                    </g>
                </g>
                <g transform="translate(98.5 483)">
                    <mask id="T" fill="#fff">
                        <use xlink:href="#S"/>
                    </mask>
                    <g fill="#000000" fill-rule="nonzero" mask="url(#T)">
                        <path d="M22.275 63.788l16.2-8.936V35.94l-17.864-9.855L2.025 36.338v18.116l16.2 8.936V42.16h4.05v21.628zm-4.05-41.038V0h4.05v22.352l20.25 11.17V57.27L20.611 69.358-2.025 56.871v-22.95l20.25-11.171z"/>
                        <path d="M42.525 34.476L20.611 46.564-2.025 34.078V11.127L20.611-1.36l21.914 12.089v23.747zm-4.05-21.33L20.611 3.292 2.025 13.544V31.66l18.586 10.253 17.864-9.855V13.146z"/>
                        <g>
                            <path d="M58.725 63.788l-16.2-8.936V35.94l17.864-9.855 18.586 10.253v18.116l-16.2 8.936V42.16h-4.05v21.628zm4.05-41.038V0h-4.05v22.352l-20.25 11.17V57.27l21.914 12.089 22.636-12.487v-22.95L62.775 22.75z"/>
                            <path d="M38.475 34.476l21.914 12.088 22.636-12.486V11.127L60.389-1.36 38.475 10.729v23.747zm4.05-21.33l17.864-9.854 18.586 10.252V31.66L60.389 41.913l-17.864-9.855V13.146z"/>
                        </g>
                    </g>
                </g>
                <g transform="translate(-64 550.5)">
                    <mask id="V" fill="#fff">
                        <use xlink:href="#U"/>
                    </mask>
                    <g fill="#000000" fill-rule="nonzero" mask="url(#V)">
                        <path d="M22.275 63.788l16.2-8.936V35.94l-17.864-9.855L2.025 36.338v18.116l16.2 8.936V42.16h4.05v21.628zm-4.05-41.038V0h4.05v22.352l20.25 11.17V57.27L20.611 69.358-2.025 56.871v-22.95l20.25-11.171z"/>
                        <path d="M42.525 34.476L20.611 46.564-2.025 34.078V11.127L20.611-1.36l21.914 12.089v23.747zm-4.05-21.33L20.611 3.292 2.025 13.544V31.66l18.586 10.253 17.864-9.855V13.146z"/>
                        <g>
                            <path d="M58.725 63.788l-16.2-8.936V35.94l17.864-9.855 18.586 10.253v18.116l-16.2 8.936V42.16h-4.05v21.628zm4.05-41.038V0h-4.05v22.352l-20.25 11.17V57.27l21.914 12.089 22.636-12.487v-22.95L62.775 22.75z"/>
                            <path d="M38.475 34.476l21.914 12.088 22.636-12.486V11.127L60.389-1.36 38.475 10.729v23.747zm4.05-21.33l17.864-9.854 18.586 10.252V31.66L60.389 41.913l-17.864-9.855V13.146z"/>
                        </g>
                    </g>
                </g>
                <g transform="translate(98.5 550.5)">
                    <mask id="X" fill="#fff">
                        <use xlink:href="#W"/>
                    </mask>
                    <g fill="#000000" fill-rule="nonzero" mask="url(#X)">
                        <path d="M22.275 63.788l16.2-8.936V35.94l-17.864-9.855L2.025 36.338v18.116l16.2 8.936V42.16h4.05v21.628zm-4.05-41.038V0h4.05v22.352l20.25 11.17V57.27L20.611 69.358-2.025 56.871v-22.95l20.25-11.171z"/>
                        <path d="M42.525 34.476L20.611 46.564-2.025 34.078V11.127L20.611-1.36l21.914 12.089v23.747zm-4.05-21.33L20.611 3.292 2.025 13.544V31.66l18.586 10.253 17.864-9.855V13.146z"/>
                        <g>
                            <path d="M58.725 63.788l-16.2-8.936V35.94l17.864-9.855 18.586 10.253v18.116l-16.2 8.936V42.16h-4.05v21.628zm4.05-41.038V0h-4.05v22.352l-20.25 11.17V57.27l21.914 12.089 22.636-12.487v-22.95L62.775 22.75z"/>
                            <path d="M38.475 34.476l21.914 12.088 22.636-12.486V11.127L60.389-1.36 38.475 10.729v23.747zm4.05-21.33l17.864-9.854 18.586 10.252V31.66L60.389 41.913l-17.864-9.855V13.146z"/>
                        </g>
                    </g>
                </g>
                <g transform="translate(17.25 483)">
                    <mask id="Z" fill="#fff">
                        <use xlink:href="#Y"/>
                    </mask>
                    <g fill="#000000" fill-rule="nonzero" mask="url(#Z)">
                        <path d="M22.275 63.788l16.2-8.936V35.94l-17.864-9.855L2.025 36.338v18.116l16.2 8.936V42.16h4.05v21.628zm-4.05-41.038V0h4.05v22.352l20.25 11.17V57.27L20.611 69.358-2.025 56.871v-22.95l20.25-11.171z"/>
                        <path d="M42.525 34.476L20.611 46.564-2.025 34.078V11.127L20.611-1.36l21.914 12.089v23.747zm-4.05-21.33L20.611 3.292 2.025 13.544V31.66l18.586 10.253 17.864-9.855V13.146z"/>
                        <g>
                            <path d="M58.725 63.788l-16.2-8.936V35.94l17.864-9.855 18.586 10.253v18.116l-16.2 8.936V42.16h-4.05v21.628zm4.05-41.038V0h-4.05v22.352l-20.25 11.17V57.27l21.914 12.089 22.636-12.487v-22.95L62.775 22.75z"/>
                            <path d="M38.475 34.476l21.914 12.088 22.636-12.486V11.127L60.389-1.36 38.475 10.729v23.747zm4.05-21.33l17.864-9.854 18.586 10.252V31.66L60.389 41.913l-17.864-9.855V13.146z"/>
                        </g>
                    </g>
                </g>
                <g transform="translate(179.75 483)">
                    <mask id="ab" fill="#fff">
                        <use xlink:href="#aa"/>
                    </mask>
                    <g fill="#000000" fill-rule="nonzero" mask="url(#ab)">
                        <path d="M22.275 63.788l16.2-8.936V35.94l-17.864-9.855L2.025 36.338v18.116l16.2 8.936V42.16h4.05v21.628zm-4.05-41.038V0h4.05v22.352l20.25 11.17V57.27L20.611 69.358-2.025 56.871v-22.95l20.25-11.171z"/>
                        <path d="M42.525 34.476L20.611 46.564-2.025 34.078V11.127L20.611-1.36l21.914 12.089v23.747zm-4.05-21.33L20.611 3.292 2.025 13.544V31.66l18.586 10.253 17.864-9.855V13.146z"/>
                        <g>
                            <path d="M58.725 63.788l-16.2-8.936V35.94l17.864-9.855 18.586 10.253v18.116l-16.2 8.936V42.16h-4.05v21.628zm4.05-41.038V0h-4.05v22.352l-20.25 11.17V57.27l21.914 12.089 22.636-12.487v-22.95L62.775 22.75z"/>
                            <path d="M38.475 34.476l21.914 12.088 22.636-12.486V11.127L60.389-1.36 38.475 10.729v23.747zm4.05-21.33l17.864-9.854 18.586 10.252V31.66L60.389 41.913l-17.864-9.855V13.146z"/>
                        </g>
                    </g>
                </g>
                <g transform="translate(17.25 550.5)">
                    <mask id="ad" fill="#fff">
                        <use xlink:href="#ac"/>
                    </mask>
                    <g fill="#000000" fill-rule="nonzero" mask="url(#ad)">
                        <path d="M22.275 63.788l16.2-8.936V35.94l-17.864-9.855L2.025 36.338v18.116l16.2 8.936V42.16h4.05v21.628zm-4.05-41.038V0h4.05v22.352l20.25 11.17V57.27L20.611 69.358-2.025 56.871v-22.95l20.25-11.171z"/>
                        <path d="M42.525 34.476L20.611 46.564-2.025 34.078V11.127L20.611-1.36l21.914 12.089v23.747zm-4.05-21.33L20.611 3.292 2.025 13.544V31.66l18.586 10.253 17.864-9.855V13.146z"/>
                        <g>
                            <path d="M58.725 63.788l-16.2-8.936V35.94l17.864-9.855 18.586 10.253v18.116l-16.2 8.936V42.16h-4.05v21.628zm4.05-41.038V0h-4.05v22.352l-20.25 11.17V57.27l21.914 12.089 22.636-12.487v-22.95L62.775 22.75z"/>
                            <path d="M38.475 34.476l21.914 12.088 22.636-12.486V11.127L60.389-1.36 38.475 10.729v23.747zm4.05-21.33l17.864-9.854 18.586 10.252V31.66L60.389 41.913l-17.864-9.855V13.146z"/>
                        </g>
                    </g>
                </g>
                <g transform="translate(179.75 550.5)">
                    <mask id="af" fill="#fff">
                        <use xlink:href="#ae"/>
                    </mask>
                    <g fill="#000000" fill-rule="nonzero" mask="url(#af)">
                        <path d="M22.275 63.788l16.2-8.936V35.94l-17.864-9.855L2.025 36.338v18.116l16.2 8.936V42.16h4.05v21.628zm-4.05-41.038V0h4.05v22.352l20.25 11.17V57.27L20.611 69.358-2.025 56.871v-22.95l20.25-11.171z"/>
                        <path d="M42.525 34.476L20.611 46.564-2.025 34.078V11.127L20.611-1.36l21.914 12.089v23.747zm-4.05-21.33L20.611 3.292 2.025 13.544V31.66l18.586 10.253 17.864-9.855V13.146z"/>
                        <g>
                            <path d="M58.725 63.788l-16.2-8.936V35.94l17.864-9.855 18.586 10.253v18.116l-16.2 8.936V42.16h-4.05v21.628zm4.05-41.038V0h-4.05v22.352l-20.25 11.17V57.27l21.914 12.089 22.636-12.487v-22.95L62.775 22.75z"/>
                            <path d="M38.475 34.476l21.914 12.088 22.636-12.486V11.127L60.389-1.36 38.475 10.729v23.747zm4.05-21.33l17.864-9.854 18.586 10.252V31.66L60.389 41.913l-17.864-9.855V13.146z"/>
                        </g>
                    </g>
                </g>
            </g>
            <g>
                <g transform="translate(261 349)">
                    <mask id="ah" fill="#fff">
                        <use xlink:href="#ag"/>
                    </mask>
                    <g fill="#000000" fill-rule="nonzero" mask="url(#ah)">
                        <path d="M22.275 63.788l16.2-8.936V35.94l-17.864-9.855L2.025 36.338v18.116l16.2 8.936V42.16h4.05v21.628zm-4.05-41.038V0h4.05v22.352l20.25 11.17V57.27L20.611 69.358-2.025 56.871v-22.95l20.25-11.171z"/>
                        <path d="M42.525 34.476L20.611 46.564-2.025 34.078V11.127L20.611-1.36l21.914 12.089v23.747zm-4.05-21.33L20.611 3.292 2.025 13.544V31.66l18.586 10.253 17.864-9.855V13.146z"/>
                        <g>
                            <path d="M58.725 63.788l-16.2-8.936V35.94l17.864-9.855 18.586 10.253v18.116l-16.2 8.936V42.16h-4.05v21.628zm4.05-41.038V0h-4.05v22.352l-20.25 11.17V57.27l21.914 12.089 22.636-12.487v-22.95L62.775 22.75z"/>
                            <path d="M38.475 34.476l21.914 12.088 22.636-12.486V11.127L60.389-1.36 38.475 10.729v23.747zm4.05-21.33l17.864-9.854 18.586 10.252V31.66L60.389 41.913l-17.864-9.855V13.146z"/>
                        </g>
                    </g>
                </g>
                <g transform="translate(261 416.5)">
                    <mask id="aj" fill="#fff">
                        <use xlink:href="#ai"/>
                    </mask>
                    <g fill="#000000" fill-rule="nonzero" mask="url(#aj)">
                        <path d="M22.275 63.788l16.2-8.936V35.94l-17.864-9.855L2.025 36.338v18.116l16.2 8.936V42.16h4.05v21.628zm-4.05-41.038V0h4.05v22.352l20.25 11.17V57.27L20.611 69.358-2.025 56.871v-22.95l20.25-11.171z"/>
                        <path d="M42.525 34.476L20.611 46.564-2.025 34.078V11.127L20.611-1.36l21.914 12.089v23.747zm-4.05-21.33L20.611 3.292 2.025 13.544V31.66l18.586 10.253 17.864-9.855V13.146z"/>
                        <g>
                            <path d="M58.725 63.788l-16.2-8.936V35.94l17.864-9.855 18.586 10.253v18.116l-16.2 8.936V42.16h-4.05v21.628zm4.05-41.038V0h-4.05v22.352l-20.25 11.17V57.27l21.914 12.089 22.636-12.487v-22.95L62.775 22.75z"/>
                            <path d="M38.475 34.476l21.914 12.088 22.636-12.486V11.127L60.389-1.36 38.475 10.729v23.747zm4.05-21.33l17.864-9.854 18.586 10.252V31.66L60.389 41.913l-17.864-9.855V13.146z"/>
                        </g>
                    </g>
                </g>
                <g transform="translate(342.25 349)">
                    <mask id="al" fill="#fff">
                        <use xlink:href="#ak"/>
                    </mask>
                    <g fill="#000000" fill-rule="nonzero" mask="url(#al)">
                        <path d="M22.275 63.788l16.2-8.936V35.94l-17.864-9.855L2.025 36.338v18.116l16.2 8.936V42.16h4.05v21.628zm-4.05-41.038V0h4.05v22.352l20.25 11.17V57.27L20.611 69.358-2.025 56.871v-22.95l20.25-11.171z"/>
                        <path d="M42.525 34.476L20.611 46.564-2.025 34.078V11.127L20.611-1.36l21.914 12.089v23.747zm-4.05-21.33L20.611 3.292 2.025 13.544V31.66l18.586 10.253 17.864-9.855V13.146z"/>
                        <g>
                            <path d="M58.725 63.788l-16.2-8.936V35.94l17.864-9.855 18.586 10.253v18.116l-16.2 8.936V42.16h-4.05v21.628zm4.05-41.038V0h-4.05v22.352l-20.25 11.17V57.27l21.914 12.089 22.636-12.487v-22.95L62.775 22.75z"/>
                            <path d="M38.475 34.476l21.914 12.088 22.636-12.486V11.127L60.389-1.36 38.475 10.729v23.747zm4.05-21.33l17.864-9.854 18.586 10.252V31.66L60.389 41.913l-17.864-9.855V13.146z"/>
                        </g>
                    </g>
                </g>
                <g transform="translate(342.25 416.5)">
                    <mask id="an" fill="#fff">
                        <use xlink:href="#am"/>
                    </mask>
                    <g fill="#000000" fill-rule="nonzero" mask="url(#an)">
                        <path d="M22.275 63.788l16.2-8.936V35.94l-17.864-9.855L2.025 36.338v18.116l16.2 8.936V42.16h4.05v21.628zm-4.05-41.038V0h4.05v22.352l20.25 11.17V57.27L20.611 69.358-2.025 56.871v-22.95l20.25-11.171z"/>
                        <path d="M42.525 34.476L20.611 46.564-2.025 34.078V11.127L20.611-1.36l21.914 12.089v23.747zm-4.05-21.33L20.611 3.292 2.025 13.544V31.66l18.586 10.253 17.864-9.855V13.146z"/>
                        <g>
                            <path d="M58.725 63.788l-16.2-8.936V35.94l17.864-9.855 18.586 10.253v18.116l-16.2 8.936V42.16h-4.05v21.628zm4.05-41.038V0h-4.05v22.352l-20.25 11.17V57.27l21.914 12.089 22.636-12.487v-22.95L62.775 22.75z"/>
                            <path d="M38.475 34.476l21.914 12.088 22.636-12.486V11.127L60.389-1.36 38.475 10.729v23.747zm4.05-21.33l17.864-9.854 18.586 10.252V31.66L60.389 41.913l-17.864-9.855V13.146z"/>
                        </g>
                    </g>
                </g>
            </g>
            <g>
                <g transform="translate(261 483)">
                    <mask id="ap" fill="#fff">
                        <use xlink:href="#ao"/>
                    </mask>
                    <g fill="#000000" fill-rule="nonzero" mask="url(#ap)">
                        <path d="M22.275 63.788l16.2-8.936V35.94l-17.864-9.855L2.025 36.338v18.116l16.2 8.936V42.16h4.05v21.628zm-4.05-41.038V0h4.05v22.352l20.25 11.17V57.27L20.611 69.358-2.025 56.871v-22.95l20.25-11.171z"/>
                        <path d="M42.525 34.476L20.611 46.564-2.025 34.078V11.127L20.611-1.36l21.914 12.089v23.747zm-4.05-21.33L20.611 3.292 2.025 13.544V31.66l18.586 10.253 17.864-9.855V13.146z"/>
                        <g>
                            <path d="M58.725 63.788l-16.2-8.936V35.94l17.864-9.855 18.586 10.253v18.116l-16.2 8.936V42.16h-4.05v21.628zm4.05-41.038V0h-4.05v22.352l-20.25 11.17V57.27l21.914 12.089 22.636-12.487v-22.95L62.775 22.75z"/>
                            <path d="M38.475 34.476l21.914 12.088 22.636-12.486V11.127L60.389-1.36 38.475 10.729v23.747zm4.05-21.33l17.864-9.854 18.586 10.252V31.66L60.389 41.913l-17.864-9.855V13.146z"/>
                        </g>
                    </g>
                </g>
                <g transform="translate(261 550.5)">
                    <mask id="ar" fill="#fff">
                        <use xlink:href="#aq"/>
                    </mask>
                    <g fill="#000000" fill-rule="nonzero" mask="url(#ar)">
                        <path d="M22.275 63.788l16.2-8.936V35.94l-17.864-9.855L2.025 36.338v18.116l16.2 8.936V42.16h4.05v21.628zm-4.05-41.038V0h4.05v22.352l20.25 11.17V57.27L20.611 69.358-2.025 56.871v-22.95l20.25-11.171z"/>
                        <path d="M42.525 34.476L20.611 46.564-2.025 34.078V11.127L20.611-1.36l21.914 12.089v23.747zm-4.05-21.33L20.611 3.292 2.025 13.544V31.66l18.586 10.253 17.864-9.855V13.146z"/>
                        <g>
                            <path d="M58.725 63.788l-16.2-8.936V35.94l17.864-9.855 18.586 10.253v18.116l-16.2 8.936V42.16h-4.05v21.628zm4.05-41.038V0h-4.05v22.352l-20.25 11.17V57.27l21.914 12.089 22.636-12.487v-22.95L62.775 22.75z"/>
                            <path d="M38.475 34.476l21.914 12.088 22.636-12.486V11.127L60.389-1.36 38.475 10.729v23.747zm4.05-21.33l17.864-9.854 18.586 10.252V31.66L60.389 41.913l-17.864-9.855V13.146z"/>
                        </g>
                    </g>
                </g>
                <g transform="translate(342.25 483)">
                    <mask id="at" fill="#fff">
                        <use xlink:href="#as"/>
                    </mask>
                    <g fill="#000000" fill-rule="nonzero" mask="url(#at)">
                        <path d="M22.275 63.788l16.2-8.936V35.94l-17.864-9.855L2.025 36.338v18.116l16.2 8.936V42.16h4.05v21.628zm-4.05-41.038V0h4.05v22.352l20.25 11.17V57.27L20.611 69.358-2.025 56.871v-22.95l20.25-11.171z"/>
                        <path d="M42.525 34.476L20.611 46.564-2.025 34.078V11.127L20.611-1.36l21.914 12.089v23.747zm-4.05-21.33L20.611 3.292 2.025 13.544V31.66l18.586 10.253 17.864-9.855V13.146z"/>
                        <g>
                            <path d="M58.725 63.788l-16.2-8.936V35.94l17.864-9.855 18.586 10.253v18.116l-16.2 8.936V42.16h-4.05v21.628zm4.05-41.038V0h-4.05v22.352l-20.25 11.17V57.27l21.914 12.089 22.636-12.487v-22.95L62.775 22.75z"/>
                            <path d="M38.475 34.476l21.914 12.088 22.636-12.486V11.127L60.389-1.36 38.475 10.729v23.747zm4.05-21.33l17.864-9.854 18.586 10.252V31.66L60.389 41.913l-17.864-9.855V13.146z"/>
                        </g>
                    </g>
                </g>
                <g transform="translate(342.25 550.5)">
                    <mask id="av" fill="#fff">
                        <use xlink:href="#au"/>
                    </mask>
                    <g fill="#000000" fill-rule="nonzero" mask="url(#av)">
                        <path d="M22.275 63.788l16.2-8.936V35.94l-17.864-9.855L2.025 36.338v18.116l16.2 8.936V42.16h4.05v21.628zm-4.05-41.038V0h4.05v22.352l20.25 11.17V57.27L20.611 69.358-2.025 56.871v-22.95l20.25-11.171z"/>
                        <path d="M42.525 34.476L20.611 46.564-2.025 34.078V11.127L20.611-1.36l21.914 12.089v23.747zm-4.05-21.33L20.611 3.292 2.025 13.544V31.66l18.586 10.253 17.864-9.855V13.146z"/>
                        <g>
                            <path d="M58.725 63.788l-16.2-8.936V35.94l17.864-9.855 18.586 10.253v18.116l-16.2 8.936V42.16h-4.05v21.628zm4.05-41.038V0h-4.05v22.352l-20.25 11.17V57.27l21.914 12.089 22.636-12.487v-22.95L62.775 22.75z"/>
                            <path d="M38.475 34.476l21.914 12.088 22.636-12.486V11.127L60.389-1.36 38.475 10.729v23.747zm4.05-21.33l17.864-9.854 18.586 10.252V31.66L60.389 41.913l-17.864-9.855V13.146z"/>
                        </g>
                    </g>
                </g>
            </g>
            <g>
                <g transform="translate(-64 -56)">
                    <mask id="ax" fill="#fff">
                        <use xlink:href="#aw"/>
                    </mask>
                    <g fill="#000000" fill-rule="nonzero" mask="url(#ax)">
                        <path d="M22.275 63.788l16.2-8.936V35.94l-17.864-9.855L2.025 36.338v18.116l16.2 8.936V42.16h4.05v21.628zm-4.05-41.038V0h4.05v22.352l20.25 11.17V57.27L20.611 69.358-2.025 56.871v-22.95l20.25-11.171z"/>
                        <path d="M42.525 34.476L20.611 46.564-2.025 34.078V11.127L20.611-1.36l21.914 12.089v23.747zm-4.05-21.33L20.611 3.292 2.025 13.544V31.66l18.586 10.253 17.864-9.855V13.146z"/>
                        <g>
                            <path d="M58.725 63.788l-16.2-8.936V35.94l17.864-9.855 18.586 10.253v18.116l-16.2 8.936V42.16h-4.05v21.628zm4.05-41.038V0h-4.05v22.352l-20.25 11.17V57.27l21.914 12.089 22.636-12.487v-22.95L62.775 22.75z"/>
                            <path d="M38.475 34.476l21.914 12.088 22.636-12.486V11.127L60.389-1.36 38.475 10.729v23.747zm4.05-21.33l17.864-9.854 18.586 10.252V31.66L60.389 41.913l-17.864-9.855V13.146z"/>
                        </g>
                    </g>
                </g>
                <g transform="translate(98.5 -56)">
                    <mask id="az" fill="#fff">
                        <use xlink:href="#ay"/>
                    </mask>
                    <g fill="#000000" fill-rule="nonzero" mask="url(#az)">
                        <path d="M22.275 63.788l16.2-8.936V35.94l-17.864-9.855L2.025 36.338v18.116l16.2 8.936V42.16h4.05v21.628zm-4.05-41.038V0h4.05v22.352l20.25 11.17V57.27L20.611 69.358-2.025 56.871v-22.95l20.25-11.171z"/>
                        <path d="M42.525 34.476L20.611 46.564-2.025 34.078V11.127L20.611-1.36l21.914 12.089v23.747zm-4.05-21.33L20.611 3.292 2.025 13.544V31.66l18.586 10.253 17.864-9.855V13.146z"/>
                        <g>
                            <path d="M58.725 63.788l-16.2-8.936V35.94l17.864-9.855 18.586 10.253v18.116l-16.2 8.936V42.16h-4.05v21.628zm4.05-41.038V0h-4.05v22.352l-20.25 11.17V57.27l21.914 12.089 22.636-12.487v-22.95L62.775 22.75z"/>
                            <path d="M38.475 34.476l21.914 12.088 22.636-12.486V11.127L60.389-1.36 38.475 10.729v23.747zm4.05-21.33l17.864-9.854 18.586 10.252V31.66L60.389 41.913l-17.864-9.855V13.146z"/>
                        </g>
                    </g>
                </g>
                <g transform="translate(-64 11.5)">
                    <mask id="aB" fill="#fff">
                        <use xlink:href="#aA"/>
                    </mask>
                    <g fill="#000000" fill-rule="nonzero" mask="url(#aB)">
                        <path d="M22.275 63.788l16.2-8.936V35.94l-17.864-9.855L2.025 36.338v18.116l16.2 8.936V42.16h4.05v21.628zm-4.05-41.038V0h4.05v22.352l20.25 11.17V57.27L20.611 69.358-2.025 56.871v-22.95l20.25-11.171z"/>
                        <path d="M42.525 34.476L20.611 46.564-2.025 34.078V11.127L20.611-1.36l21.914 12.089v23.747zm-4.05-21.33L20.611 3.292 2.025 13.544V31.66l18.586 10.253 17.864-9.855V13.146z"/>
                        <g>
                            <path d="M58.725 63.788l-16.2-8.936V35.94l17.864-9.855 18.586 10.253v18.116l-16.2 8.936V42.16h-4.05v21.628zm4.05-41.038V0h-4.05v22.352l-20.25 11.17V57.27l21.914 12.089 22.636-12.487v-22.95L62.775 22.75z"/>
                            <path d="M38.475 34.476l21.914 12.088 22.636-12.486V11.127L60.389-1.36 38.475 10.729v23.747zm4.05-21.33l17.864-9.854 18.586 10.252V31.66L60.389 41.913l-17.864-9.855V13.146z"/>
                        </g>
                    </g>
                </g>
                <g transform="translate(98.5 11.5)">
                    <mask id="aD" fill="#fff">
                        <use xlink:href="#aC"/>
                    </mask>
                    <g fill="#000000" fill-rule="nonzero" mask="url(#aD)">
                        <path d="M22.275 63.788l16.2-8.936V35.94l-17.864-9.855L2.025 36.338v18.116l16.2 8.936V42.16h4.05v21.628zm-4.05-41.038V0h4.05v22.352l20.25 11.17V57.27L20.611 69.358-2.025 56.871v-22.95l20.25-11.171z"/>
                        <path d="M42.525 34.476L20.611 46.564-2.025 34.078V11.127L20.611-1.36l21.914 12.089v23.747zm-4.05-21.33L20.611 3.292 2.025 13.544V31.66l18.586 10.253 17.864-9.855V13.146z"/>
                        <g>
                            <path d="M58.725 63.788l-16.2-8.936V35.94l17.864-9.855 18.586 10.253v18.116l-16.2 8.936V42.16h-4.05v21.628zm4.05-41.038V0h-4.05v22.352l-20.25 11.17V57.27l21.914 12.089 22.636-12.487v-22.95L62.775 22.75z"/>
                            <path d="M38.475 34.476l21.914 12.088 22.636-12.486V11.127L60.389-1.36 38.475 10.729v23.747zm4.05-21.33l17.864-9.854 18.586 10.252V31.66L60.389 41.913l-17.864-9.855V13.146z"/>
                        </g>
                    </g>
                </g>
                <g transform="translate(17.25 -56)">
                    <mask id="aF" fill="#fff">
                        <use xlink:href="#aE"/>
                    </mask>
                    <g fill="#000000" fill-rule="nonzero" mask="url(#aF)">
                        <path d="M22.275 63.788l16.2-8.936V35.94l-17.864-9.855L2.025 36.338v18.116l16.2 8.936V42.16h4.05v21.628zm-4.05-41.038V0h4.05v22.352l20.25 11.17V57.27L20.611 69.358-2.025 56.871v-22.95l20.25-11.171z"/>
                        <path d="M42.525 34.476L20.611 46.564-2.025 34.078V11.127L20.611-1.36l21.914 12.089v23.747zm-4.05-21.33L20.611 3.292 2.025 13.544V31.66l18.586 10.253 17.864-9.855V13.146z"/>
                        <g>
                            <path d="M58.725 63.788l-16.2-8.936V35.94l17.864-9.855 18.586 10.253v18.116l-16.2 8.936V42.16h-4.05v21.628zm4.05-41.038V0h-4.05v22.352l-20.25 11.17V57.27l21.914 12.089 22.636-12.487v-22.95L62.775 22.75z"/>
                            <path d="M38.475 34.476l21.914 12.088 22.636-12.486V11.127L60.389-1.36 38.475 10.729v23.747zm4.05-21.33l17.864-9.854 18.586 10.252V31.66L60.389 41.913l-17.864-9.855V13.146z"/>
                        </g>
                    </g>
                </g>
                <g transform="translate(179.75 -56)">
                    <mask id="aH" fill="#fff">
                        <use xlink:href="#aG"/>
                    </mask>
                    <g fill="#000000" fill-rule="nonzero" mask="url(#aH)">
                        <path d="M22.275 63.788l16.2-8.936V35.94l-17.864-9.855L2.025 36.338v18.116l16.2 8.936V42.16h4.05v21.628zm-4.05-41.038V0h4.05v22.352l20.25 11.17V57.27L20.611 69.358-2.025 56.871v-22.95l20.25-11.171z"/>
                        <path d="M42.525 34.476L20.611 46.564-2.025 34.078V11.127L20.611-1.36l21.914 12.089v23.747zm-4.05-21.33L20.611 3.292 2.025 13.544V31.66l18.586 10.253 17.864-9.855V13.146z"/>
                        <g>
                            <path d="M58.725 63.788l-16.2-8.936V35.94l17.864-9.855 18.586 10.253v18.116l-16.2 8.936V42.16h-4.05v21.628zm4.05-41.038V0h-4.05v22.352l-20.25 11.17V57.27l21.914 12.089 22.636-12.487v-22.95L62.775 22.75z"/>
                            <path d="M38.475 34.476l21.914 12.088 22.636-12.486V11.127L60.389-1.36 38.475 10.729v23.747zm4.05-21.33l17.864-9.854 18.586 10.252V31.66L60.389 41.913l-17.864-9.855V13.146z"/>
                        </g>
                    </g>
                </g>
                <g transform="translate(17.25 11.5)">
                    <mask id="aJ" fill="#fff">
                        <use xlink:href="#aI"/>
                    </mask>
                    <g fill="#000000" fill-rule="nonzero" mask="url(#aJ)">
                        <path d="M22.275 63.788l16.2-8.936V35.94l-17.864-9.855L2.025 36.338v18.116l16.2 8.936V42.16h4.05v21.628zm-4.05-41.038V0h4.05v22.352l20.25 11.17V57.27L20.611 69.358-2.025 56.871v-22.95l20.25-11.171z"/>
                        <path d="M42.525 34.476L20.611 46.564-2.025 34.078V11.127L20.611-1.36l21.914 12.089v23.747zm-4.05-21.33L20.611 3.292 2.025 13.544V31.66l18.586 10.253 17.864-9.855V13.146z"/>
                        <g>
                            <path d="M58.725 63.788l-16.2-8.936V35.94l17.864-9.855 18.586 10.253v18.116l-16.2 8.936V42.16h-4.05v21.628zm4.05-41.038V0h-4.05v22.352l-20.25 11.17V57.27l21.914 12.089 22.636-12.487v-22.95L62.775 22.75z"/>
                            <path d="M38.475 34.476l21.914 12.088 22.636-12.486V11.127L60.389-1.36 38.475 10.729v23.747zm4.05-21.33l17.864-9.854 18.586 10.252V31.66L60.389 41.913l-17.864-9.855V13.146z"/>
                        </g>
                    </g>
                </g>
                <g transform="translate(179.75 11.5)">
                    <mask id="aL" fill="#fff">
                        <use xlink:href="#aK"/>
                    </mask>
                    <g fill="#000000" fill-rule="nonzero" mask="url(#aL)">
                        <path d="M22.275 63.788l16.2-8.936V35.94l-17.864-9.855L2.025 36.338v18.116l16.2 8.936V42.16h4.05v21.628zm-4.05-41.038V0h4.05v22.352l20.25 11.17V57.27L20.611 69.358-2.025 56.871v-22.95l20.25-11.171z"/>
                        <path d="M42.525 34.476L20.611 46.564-2.025 34.078V11.127L20.611-1.36l21.914 12.089v23.747zm-4.05-21.33L20.611 3.292 2.025 13.544V31.66l18.586 10.253 17.864-9.855V13.146z"/>
                        <g>
                            <path d="M58.725 63.788l-16.2-8.936V35.94l17.864-9.855 18.586 10.253v18.116l-16.2 8.936V42.16h-4.05v21.628zm4.05-41.038V0h-4.05v22.352l-20.25 11.17V57.27l21.914 12.089 22.636-12.487v-22.95L62.775 22.75z"/>
                            <path d="M38.475 34.476l21.914 12.088 22.636-12.486V11.127L60.389-1.36 38.475 10.729v23.747zm4.05-21.33l17.864-9.854 18.586 10.252V31.66L60.389 41.913l-17.864-9.855V13.146z"/>
                        </g>
                    </g>
                </g>
            </g>
            <g>
                <g transform="translate(261 -56)">
                    <mask id="aN" fill="#fff">
                        <use xlink:href="#aM"/>
                    </mask>
                    <g fill="#000000" fill-rule="nonzero" mask="url(#aN)">
                        <path d="M22.275 63.788l16.2-8.936V35.94l-17.864-9.855L2.025 36.338v18.116l16.2 8.936V42.16h4.05v21.628zm-4.05-41.038V0h4.05v22.352l20.25 11.17V57.27L20.611 69.358-2.025 56.871v-22.95l20.25-11.171z"/>
                        <path d="M42.525 34.476L20.611 46.564-2.025 34.078V11.127L20.611-1.36l21.914 12.089v23.747zm-4.05-21.33L20.611 3.292 2.025 13.544V31.66l18.586 10.253 17.864-9.855V13.146z"/>
                        <g>
                            <path d="M58.725 63.788l-16.2-8.936V35.94l17.864-9.855 18.586 10.253v18.116l-16.2 8.936V42.16h-4.05v21.628zm4.05-41.038V0h-4.05v22.352l-20.25 11.17V57.27l21.914 12.089 22.636-12.487v-22.95L62.775 22.75z"/>
                            <path d="M38.475 34.476l21.914 12.088 22.636-12.486V11.127L60.389-1.36 38.475 10.729v23.747zm4.05-21.33l17.864-9.854 18.586 10.252V31.66L60.389 41.913l-17.864-9.855V13.146z"/>
                        </g>
                    </g>
                </g>
                <g transform="translate(261 11.5)">
                    <mask id="aP" fill="#fff">
                        <use xlink:href="#aO"/>
                    </mask>
                    <g fill="#000000" fill-rule="nonzero" mask="url(#aP)">
                        <path d="M22.275 63.788l16.2-8.936V35.94l-17.864-9.855L2.025 36.338v18.116l16.2 8.936V42.16h4.05v21.628zm-4.05-41.038V0h4.05v22.352l20.25 11.17V57.27L20.611 69.358-2.025 56.871v-22.95l20.25-11.171z"/>
                        <path d="M42.525 34.476L20.611 46.564-2.025 34.078V11.127L20.611-1.36l21.914 12.089v23.747zm-4.05-21.33L20.611 3.292 2.025 13.544V31.66l18.586 10.253 17.864-9.855V13.146z"/>
                        <g>
                            <path d="M58.725 63.788l-16.2-8.936V35.94l17.864-9.855 18.586 10.253v18.116l-16.2 8.936V42.16h-4.05v21.628zm4.05-41.038V0h-4.05v22.352l-20.25 11.17V57.27l21.914 12.089 22.636-12.487v-22.95L62.775 22.75z"/>
                            <path d="M38.475 34.476l21.914 12.088 22.636-12.486V11.127L60.389-1.36 38.475 10.729v23.747zm4.05-21.33l17.864-9.854 18.586 10.252V31.66L60.389 41.913l-17.864-9.855V13.146z"/>
                        </g>
                    </g>
                </g>
                <g transform="translate(342.25 -56)">
                    <mask id="aR" fill="#fff">
                        <use xlink:href="#aQ"/>
                    </mask>
                    <g fill="#000000" fill-rule="nonzero" mask="url(#aR)">
                        <path d="M22.275 63.788l16.2-8.936V35.94l-17.864-9.855L2.025 36.338v18.116l16.2 8.936V42.16h4.05v21.628zm-4.05-41.038V0h4.05v22.352l20.25 11.17V57.27L20.611 69.358-2.025 56.871v-22.95l20.25-11.171z"/>
                        <path d="M42.525 34.476L20.611 46.564-2.025 34.078V11.127L20.611-1.36l21.914 12.089v23.747zm-4.05-21.33L20.611 3.292 2.025 13.544V31.66l18.586 10.253 17.864-9.855V13.146z"/>
                        <g>
                            <path d="M58.725 63.788l-16.2-8.936V35.94l17.864-9.855 18.586 10.253v18.116l-16.2 8.936V42.16h-4.05v21.628zm4.05-41.038V0h-4.05v22.352l-20.25 11.17V57.27l21.914 12.089 22.636-12.487v-22.95L62.775 22.75z"/>
                            <path d="M38.475 34.476l21.914 12.088 22.636-12.486V11.127L60.389-1.36 38.475 10.729v23.747zm4.05-21.33l17.864-9.854 18.586 10.252V31.66L60.389 41.913l-17.864-9.855V13.146z"/>
                        </g>
                    </g>
                </g>
                <g transform="translate(342.25 11.5)">
                    <mask id="aT" fill="#fff">
                        <use xlink:href="#aS"/>
                    </mask>
                    <g fill="#000000" fill-rule="nonzero" mask="url(#aT)">
                        <path d="M22.275 63.788l16.2-8.936V35.94l-17.864-9.855L2.025 36.338v18.116l16.2 8.936V42.16h4.05v21.628zm-4.05-41.038V0h4.05v22.352l20.25 11.17V57.27L20.611 69.358-2.025 56.871v-22.95l20.25-11.171z"/>
                        <path d="M42.525 34.476L20.611 46.564-2.025 34.078V11.127L20.611-1.36l21.914 12.089v23.747zm-4.05-21.33L20.611 3.292 2.025 13.544V31.66l18.586 10.253 17.864-9.855V13.146z"/>
                        <g>
                            <path d="M58.725 63.788l-16.2-8.936V35.94l17.864-9.855 18.586 10.253v18.116l-16.2 8.936V42.16h-4.05v21.628zm4.05-41.038V0h-4.05v22.352l-20.25 11.17V57.27l21.914 12.089 22.636-12.487v-22.95L62.775 22.75z"/>
                            <path d="M38.475 34.476l21.914 12.088 22.636-12.486V11.127L60.389-1.36 38.475 10.729v23.747zm4.05-21.33l17.864-9.854 18.586 10.252V31.66L60.389 41.913l-17.864-9.855V13.146z"/>
                        </g>
                    </g>
                </g>
            </g>
            <g>
                <g transform="translate(-64 214)">
                    <mask id="aV" fill="#fff">
                        <use xlink:href="#aU"/>
                    </mask>
                    <g fill="#000000" fill-rule="nonzero" mask="url(#aV)">
                        <path d="M22.275 63.788l16.2-8.936V35.94l-17.864-9.855L2.025 36.338v18.116l16.2 8.936V42.16h4.05v21.628zm-4.05-41.038V0h4.05v22.352l20.25 11.17V57.27L20.611 69.358-2.025 56.871v-22.95l20.25-11.171z"/>
                        <path d="M42.525 34.476L20.611 46.564-2.025 34.078V11.127L20.611-1.36l21.914 12.089v23.747zm-4.05-21.33L20.611 3.292 2.025 13.544V31.66l18.586 10.253 17.864-9.855V13.146z"/>
                        <g>
                            <path d="M58.725 63.788l-16.2-8.936V35.94l17.864-9.855 18.586 10.253v18.116l-16.2 8.936V42.16h-4.05v21.628zm4.05-41.038V0h-4.05v22.352l-20.25 11.17V57.27l21.914 12.089 22.636-12.487v-22.95L62.775 22.75z"/>
                            <path d="M38.475 34.476l21.914 12.088 22.636-12.486V11.127L60.389-1.36 38.475 10.729v23.747zm4.05-21.33l17.864-9.854 18.586 10.252V31.66L60.389 41.913l-17.864-9.855V13.146z"/>
                        </g>
                    </g>
                </g>
                <g transform="translate(98.5 214)">
                    <mask id="aX" fill="#fff">
                        <use xlink:href="#aW"/>
                    </mask>
                    <g fill="#000000" fill-rule="nonzero" mask="url(#aX)">
                        <path d="M22.275 63.788l16.2-8.936V35.94l-17.864-9.855L2.025 36.338v18.116l16.2 8.936V42.16h4.05v21.628zm-4.05-41.038V0h4.05v22.352l20.25 11.17V57.27L20.611 69.358-2.025 56.871v-22.95l20.25-11.171z"/>
                        <path d="M42.525 34.476L20.611 46.564-2.025 34.078V11.127L20.611-1.36l21.914 12.089v23.747zm-4.05-21.33L20.611 3.292 2.025 13.544V31.66l18.586 10.253 17.864-9.855V13.146z"/>
                        <g>
                            <path d="M58.725 63.788l-16.2-8.936V35.94l17.864-9.855 18.586 10.253v18.116l-16.2 8.936V42.16h-4.05v21.628zm4.05-41.038V0h-4.05v22.352l-20.25 11.17V57.27l21.914 12.089 22.636-12.487v-22.95L62.775 22.75z"/>
                            <path d="M38.475 34.476l21.914 12.088 22.636-12.486V11.127L60.389-1.36 38.475 10.729v23.747zm4.05-21.33l17.864-9.854 18.586 10.252V31.66L60.389 41.913l-17.864-9.855V13.146z"/>
                        </g>
                    </g>
                </g>
                <g transform="translate(-64 281.5)">
                    <mask id="aZ" fill="#fff">
                        <use xlink:href="#aY"/>
                    </mask>
                    <g fill="#000000" fill-rule="nonzero" mask="url(#aZ)">
                        <path d="M22.275 63.788l16.2-8.936V35.94l-17.864-9.855L2.025 36.338v18.116l16.2 8.936V42.16h4.05v21.628zm-4.05-41.038V0h4.05v22.352l20.25 11.17V57.27L20.611 69.358-2.025 56.871v-22.95l20.25-11.171z"/>
                        <path d="M42.525 34.476L20.611 46.564-2.025 34.078V11.127L20.611-1.36l21.914 12.089v23.747zm-4.05-21.33L20.611 3.292 2.025 13.544V31.66l18.586 10.253 17.864-9.855V13.146z"/>
                        <g>
                            <path d="M58.725 63.788l-16.2-8.936V35.94l17.864-9.855 18.586 10.253v18.116l-16.2 8.936V42.16h-4.05v21.628zm4.05-41.038V0h-4.05v22.352l-20.25 11.17V57.27l21.914 12.089 22.636-12.487v-22.95L62.775 22.75z"/>
                            <path d="M38.475 34.476l21.914 12.088 22.636-12.486V11.127L60.389-1.36 38.475 10.729v23.747zm4.05-21.33l17.864-9.854 18.586 10.252V31.66L60.389 41.913l-17.864-9.855V13.146z"/>
                        </g>
                    </g>
                </g>
                <g transform="translate(98.5 281.5)">
                    <mask id="bb" fill="#fff">
                        <use xlink:href="#ba"/>
                    </mask>
                    <g fill="#000000" fill-rule="nonzero" mask="url(#bb)">
                        <path d="M22.275 63.788l16.2-8.936V35.94l-17.864-9.855L2.025 36.338v18.116l16.2 8.936V42.16h4.05v21.628zm-4.05-41.038V0h4.05v22.352l20.25 11.17V57.27L20.611 69.358-2.025 56.871v-22.95l20.25-11.171z"/>
                        <path d="M42.525 34.476L20.611 46.564-2.025 34.078V11.127L20.611-1.36l21.914 12.089v23.747zm-4.05-21.33L20.611 3.292 2.025 13.544V31.66l18.586 10.253 17.864-9.855V13.146z"/>
                        <g>
                            <path d="M58.725 63.788l-16.2-8.936V35.94l17.864-9.855 18.586 10.253v18.116l-16.2 8.936V42.16h-4.05v21.628zm4.05-41.038V0h-4.05v22.352l-20.25 11.17V57.27l21.914 12.089 22.636-12.487v-22.95L62.775 22.75z"/>
                            <path d="M38.475 34.476l21.914 12.088 22.636-12.486V11.127L60.389-1.36 38.475 10.729v23.747zm4.05-21.33l17.864-9.854 18.586 10.252V31.66L60.389 41.913l-17.864-9.855V13.146z"/>
                        </g>
                    </g>
                </g>
                <g transform="translate(17.25 214)">
                    <mask id="bd" fill="#fff">
                        <use xlink:href="#bc"/>
                    </mask>
                    <g fill="#000000" fill-rule="nonzero" mask="url(#bd)">
                        <path d="M22.275 63.788l16.2-8.936V35.94l-17.864-9.855L2.025 36.338v18.116l16.2 8.936V42.16h4.05v21.628zm-4.05-41.038V0h4.05v22.352l20.25 11.17V57.27L20.611 69.358-2.025 56.871v-22.95l20.25-11.171z"/>
                        <path d="M42.525 34.476L20.611 46.564-2.025 34.078V11.127L20.611-1.36l21.914 12.089v23.747zm-4.05-21.33L20.611 3.292 2.025 13.544V31.66l18.586 10.253 17.864-9.855V13.146z"/>
                        <g>
                            <path d="M58.725 63.788l-16.2-8.936V35.94l17.864-9.855 18.586 10.253v18.116l-16.2 8.936V42.16h-4.05v21.628zm4.05-41.038V0h-4.05v22.352l-20.25 11.17V57.27l21.914 12.089 22.636-12.487v-22.95L62.775 22.75z"/>
                            <path d="M38.475 34.476l21.914 12.088 22.636-12.486V11.127L60.389-1.36 38.475 10.729v23.747zm4.05-21.33l17.864-9.854 18.586 10.252V31.66L60.389 41.913l-17.864-9.855V13.146z"/>
                        </g>
                    </g>
                </g>
                <g transform="translate(179.75 214)">
                    <mask id="bf" fill="#fff">
                        <use xlink:href="#be"/>
                    </mask>
                    <g fill="#000000" fill-rule="nonzero" mask="url(#bf)">
                        <path d="M22.275 63.788l16.2-8.936V35.94l-17.864-9.855L2.025 36.338v18.116l16.2 8.936V42.16h4.05v21.628zm-4.05-41.038V0h4.05v22.352l20.25 11.17V57.27L20.611 69.358-2.025 56.871v-22.95l20.25-11.171z"/>
                        <path d="M42.525 34.476L20.611 46.564-2.025 34.078V11.127L20.611-1.36l21.914 12.089v23.747zm-4.05-21.33L20.611 3.292 2.025 13.544V31.66l18.586 10.253 17.864-9.855V13.146z"/>
                        <g>
                            <path d="M58.725 63.788l-16.2-8.936V35.94l17.864-9.855 18.586 10.253v18.116l-16.2 8.936V42.16h-4.05v21.628zm4.05-41.038V0h-4.05v22.352l-20.25 11.17V57.27l21.914 12.089 22.636-12.487v-22.95L62.775 22.75z"/>
                            <path d="M38.475 34.476l21.914 12.088 22.636-12.486V11.127L60.389-1.36 38.475 10.729v23.747zm4.05-21.33l17.864-9.854 18.586 10.252V31.66L60.389 41.913l-17.864-9.855V13.146z"/>
                        </g>
                    </g>
                </g>
                <g transform="translate(17.25 281.5)">
                    <mask id="bh" fill="#fff">
                        <use xlink:href="#bg"/>
                    </mask>
                    <g fill="#000000" fill-rule="nonzero" mask="url(#bh)">
                        <path d="M22.275 63.788l16.2-8.936V35.94l-17.864-9.855L2.025 36.338v18.116l16.2 8.936V42.16h4.05v21.628zm-4.05-41.038V0h4.05v22.352l20.25 11.17V57.27L20.611 69.358-2.025 56.871v-22.95l20.25-11.171z"/>
                        <path d="M42.525 34.476L20.611 46.564-2.025 34.078V11.127L20.611-1.36l21.914 12.089v23.747zm-4.05-21.33L20.611 3.292 2.025 13.544V31.66l18.586 10.253 17.864-9.855V13.146z"/>
                        <g>
                            <path d="M58.725 63.788l-16.2-8.936V35.94l17.864-9.855 18.586 10.253v18.116l-16.2 8.936V42.16h-4.05v21.628zm4.05-41.038V0h-4.05v22.352l-20.25 11.17V57.27l21.914 12.089 22.636-12.487v-22.95L62.775 22.75z"/>
                            <path d="M38.475 34.476l21.914 12.088 22.636-12.486V11.127L60.389-1.36 38.475 10.729v23.747zm4.05-21.33l17.864-9.854 18.586 10.252V31.66L60.389 41.913l-17.864-9.855V13.146z"/>
                        </g>
                    </g>
                </g>
                <g transform="translate(179.75 281.5)">
                    <mask id="bj" fill="#fff">
                        <use xlink:href="#bi"/>
                    </mask>
                    <g fill="#000000" fill-rule="nonzero" mask="url(#bj)">
                        <path d="M22.275 63.788l16.2-8.936V35.94l-17.864-9.855L2.025 36.338v18.116l16.2 8.936V42.16h4.05v21.628zm-4.05-41.038V0h4.05v22.352l20.25 11.17V57.27L20.611 69.358-2.025 56.871v-22.95l20.25-11.171z"/>
                        <path d="M42.525 34.476L20.611 46.564-2.025 34.078V11.127L20.611-1.36l21.914 12.089v23.747zm-4.05-21.33L20.611 3.292 2.025 13.544V31.66l18.586 10.253 17.864-9.855V13.146z"/>
                        <g>
                            <path d="M58.725 63.788l-16.2-8.936V35.94l17.864-9.855 18.586 10.253v18.116l-16.2 8.936V42.16h-4.05v21.628zm4.05-41.038V0h-4.05v22.352l-20.25 11.17V57.27l21.914 12.089 22.636-12.487v-22.95L62.775 22.75z"/>
                            <path d="M38.475 34.476l21.914 12.088 22.636-12.486V11.127L60.389-1.36 38.475 10.729v23.747zm4.05-21.33l17.864-9.854 18.586 10.252V31.66L60.389 41.913l-17.864-9.855V13.146z"/>
                        </g>
                    </g>
                </g>
            </g>
            <g>
                <g transform="translate(261 214)">
                    <mask id="bl" fill="#fff">
                        <use xlink:href="#bk"/>
                    </mask>
                    <g fill="#000000" fill-rule="nonzero" mask="url(#bl)">
                        <path d="M22.275 63.788l16.2-8.936V35.94l-17.864-9.855L2.025 36.338v18.116l16.2 8.936V42.16h4.05v21.628zm-4.05-41.038V0h4.05v22.352l20.25 11.17V57.27L20.611 69.358-2.025 56.871v-22.95l20.25-11.171z"/>
                        <path d="M42.525 34.476L20.611 46.564-2.025 34.078V11.127L20.611-1.36l21.914 12.089v23.747zm-4.05-21.33L20.611 3.292 2.025 13.544V31.66l18.586 10.253 17.864-9.855V13.146z"/>
                        <g>
                            <path d="M58.725 63.788l-16.2-8.936V35.94l17.864-9.855 18.586 10.253v18.116l-16.2 8.936V42.16h-4.05v21.628zm4.05-41.038V0h-4.05v22.352l-20.25 11.17V57.27l21.914 12.089 22.636-12.487v-22.95L62.775 22.75z"/>
                            <path d="M38.475 34.476l21.914 12.088 22.636-12.486V11.127L60.389-1.36 38.475 10.729v23.747zm4.05-21.33l17.864-9.854 18.586 10.252V31.66L60.389 41.913l-17.864-9.855V13.146z"/>
                        </g>
                    </g>
                </g>
                <g transform="translate(261 281.5)">
                    <mask id="bn" fill="#fff">
                        <use xlink:href="#bm"/>
                    </mask>
                    <g fill="#000000" fill-rule="nonzero" mask="url(#bn)">
                        <path d="M22.275 63.788l16.2-8.936V35.94l-17.864-9.855L2.025 36.338v18.116l16.2 8.936V42.16h4.05v21.628zm-4.05-41.038V0h4.05v22.352l20.25 11.17V57.27L20.611 69.358-2.025 56.871v-22.95l20.25-11.171z"/>
                        <path d="M42.525 34.476L20.611 46.564-2.025 34.078V11.127L20.611-1.36l21.914 12.089v23.747zm-4.05-21.33L20.611 3.292 2.025 13.544V31.66l18.586 10.253 17.864-9.855V13.146z"/>
                        <g>
                            <path d="M58.725 63.788l-16.2-8.936V35.94l17.864-9.855 18.586 10.253v18.116l-16.2 8.936V42.16h-4.05v21.628zm4.05-41.038V0h-4.05v22.352l-20.25 11.17V57.27l21.914 12.089 22.636-12.487v-22.95L62.775 22.75z"/>
                            <path d="M38.475 34.476l21.914 12.088 22.636-12.486V11.127L60.389-1.36 38.475 10.729v23.747zm4.05-21.33l17.864-9.854 18.586 10.252V31.66L60.389 41.913l-17.864-9.855V13.146z"/>
                        </g>
                    </g>
                </g>
                <g transform="translate(342.25 214)">
                    <mask id="bp" fill="#fff">
                        <use xlink:href="#bo"/>
                    </mask>
                    <g fill="#000000" fill-rule="nonzero" mask="url(#bp)">
                        <path d="M22.275 63.788l16.2-8.936V35.94l-17.864-9.855L2.025 36.338v18.116l16.2 8.936V42.16h4.05v21.628zm-4.05-41.038V0h4.05v22.352l20.25 11.17V57.27L20.611 69.358-2.025 56.871v-22.95l20.25-11.171z"/>
                        <path d="M42.525 34.476L20.611 46.564-2.025 34.078V11.127L20.611-1.36l21.914 12.089v23.747zm-4.05-21.33L20.611 3.292 2.025 13.544V31.66l18.586 10.253 17.864-9.855V13.146z"/>
                        <g>
                            <path d="M58.725 63.788l-16.2-8.936V35.94l17.864-9.855 18.586 10.253v18.116l-16.2 8.936V42.16h-4.05v21.628zm4.05-41.038V0h-4.05v22.352l-20.25 11.17V57.27l21.914 12.089 22.636-12.487v-22.95L62.775 22.75z"/>
                            <path d="M38.475 34.476l21.914 12.088 22.636-12.486V11.127L60.389-1.36 38.475 10.729v23.747zm4.05-21.33l17.864-9.854 18.586 10.252V31.66L60.389 41.913l-17.864-9.855V13.146z"/>
                        </g>
                    </g>
                </g>
                <g transform="translate(342.25 281.5)">
                    <mask id="br" fill="#fff">
                        <use xlink:href="#bq"/>
                    </mask>
                    <g fill="#000000" fill-rule="nonzero" mask="url(#br)">
                        <path d="M22.275 63.788l16.2-8.936V35.94l-17.864-9.855L2.025 36.338v18.116l16.2 8.936V42.16h4.05v21.628zm-4.05-41.038V0h4.05v22.352l20.25 11.17V57.27L20.611 69.358-2.025 56.871v-22.95l20.25-11.171z"/>
                        <path d="M42.525 34.476L20.611 46.564-2.025 34.078V11.127L20.611-1.36l21.914 12.089v23.747zm-4.05-21.33L20.611 3.292 2.025 13.544V31.66l18.586 10.253 17.864-9.855V13.146z"/>
                        <g>
                            <path d="M58.725 63.788l-16.2-8.936V35.94l17.864-9.855 18.586 10.253v18.116l-16.2 8.936V42.16h-4.05v21.628zm4.05-41.038V0h-4.05v22.352l-20.25 11.17V57.27l21.914 12.089 22.636-12.487v-22.95L62.775 22.75z"/>
                            <path d="M38.475 34.476l21.914 12.088 22.636-12.486V11.127L60.389-1.36 38.475 10.729v23.747zm4.05-21.33l17.864-9.854 18.586 10.252V31.66L60.389 41.913l-17.864-9.855V13.146z"/>
                        </g>
                    </g>
                </g>
            </g>
        </g>
    </g>
</svg>
